# File created by Blade
# Date/Time:  Tue Sep 30 19:31:19 2014
#---------------------------------------------------------
:version 1.10
:name HOM
:units
  mass 1.0
  length 1.000000
  angle deg
:documentation
     Acclaim Skeleton File
:root
   axis xyz
   order TX TY TZ RX RY RZ
   position 0.000000 0.000000 0.000000
   orientation 0 0 0
:bonedata
   begin
      id 1
      name Spine_dum
      direction 0.000000 1.000000 0.000000
      length 3.241213
      axis 0.0 0.0 0.0 xyz
   end
   begin
      id 2
      name LeftUpLeg_dum
      direction 1.000000 0.000000 0.000000
      length 3.434019
      axis 0.0 0.0 0.0 xyz
   end
   begin
      id 3
      name RightUpLeg_dum
      direction -1.000000 0.000000 0.000000
      length 3.434019
      axis 0.0 0.0 0.0 xyz
   end
   begin
      id 4
      name Spine
      direction 0.000000 1.000000 0.000000
      length 0.000000
      axis 0.0 0.0 0.0 xyz
      dof rx ry rz
   end
   begin
      id 5
      name Spine_dum1
      direction 0.000000 1.000000 0.000000
      length 18.382958
      axis 0.0 0.0 0.0 xyz
   end
   begin
      id 6
      name Spine_dum2
      direction 0.000000 1.000000 0.000000
      length 12.828261
      axis 0.0 0.0 0.0 xyz
   end
   begin
      id 7
      name Spine_dum3
      direction 0.000000 1.000000 0.000000
      length 12.828261
      axis 0.0 0.0 0.0 xyz
   end
   begin
      id 8
      name Head
      direction 0.000000 1.000000 0.000000
      length 4.527550
      axis 0.0 0.0 0.0 xyz
      dof rx ry rz
   end
   begin
      id 9
      name LeftShoulder
      direction 1.000000 0.000000 0.000000
      length 7.748055
      axis 0.0 0.0 -90.0 xyz
      dof rx ry rz
   end
   begin
      id 10
      name LeftArm
      direction 1.000000 0.000000 0.000000
      length 10.635614
      axis 0.0 0.0 -90.0 xyz
      dof rx ry rz
   end
   begin
      id 11
      name LeftForeArm
      direction 1.000000 0.000000 0.000000
      length 8.346755
      axis 0.0 0.0 -90.0 xyz
      dof ry rz rx
   end
   begin
      id 12
      name LeftHand
      direction 0.000000 0.000000 0.000000
      length 0.000000
      axis 0.0 0.0 -90.0 xyz
      dof rx ry rz
   end
   begin
      id 13
      name LeftHand_dum1
      direction 0.000000 0.000000 0.000000
      length 0.000000
      axis 0.0 0.0 -90.0 xyz
   end
   begin
      id 14
      name LeftHand_dum2
      direction 1.000000 0.000000 0.000000
      length 3.937000
      axis 0.0 0.0 -90.0 xyz
   end
   begin
      id 15
      name LeftHandThumb1
      direction 0.000000 0.000000 1.000000
      length 3.937000
      axis 0.0 0.0 -90.0 xyz
      dof rx rz ry
   end
   begin
      id 16
      name RightShoulder
      direction -1.000000 0.000000 0.000000
      length 7.748055
      axis 0.0 0.0 90.0 xyz
      dof rx ry rz
   end
   begin
      id 17
      name RightArm
      direction -1.000000 0.000000 0.000000
      length 10.635614
      axis 0.0 0.0 90.0 xyz
      dof rx ry rz
   end
   begin
      id 18
      name RightForeArm
      direction -1.000000 0.000000 0.000000
      length 8.346755
      axis 0.0 0.0 90.0 xyz
      dof ry rz rx
   end
   begin
      id 19
      name RightHand
      direction 0.000000 0.000000 0.000000
      length 0.000000
      axis 0.0 0.0 90.0 xyz
      dof rx ry rz
   end
   begin
      id 20
      name RightHand_dum1
      direction 0.000000 0.000000 0.000000
      length 0.000000
      axis 0.0 0.0 90.0 xyz
   end
   begin
      id 21
      name RightHand_dum2
      direction -1.000000 0.000000 0.000000
      length 3.937000
      axis 0.0 0.0 90.0 xyz
   end
   begin
      id 22
      name RightHandThumb1
      direction 0.000000 0.000000 1.000000
      length 3.937000
      axis 0.0 0.0 90.0 xyz
      dof rx rz ry
   end
   begin
      id 23
      name LeftUpLeg
      direction 0.000000 -1.000000 0.000000
      length 15.713025
      axis 0.0 0.0 0.0 xyz
      dof rx ry rz
   end
   begin
      id 24
      name LeftLeg
      direction 0.000000 -1.000000 0.000000
      length 14.435119
      axis 0.0 0.0 0.0 xyz
      dof rx ry rz
   end
   begin
      id 25
      name LeftFoot
      direction 0.000000 -0.258819 0.965926
      length 4.938895
      axis 15.0 0.0 0.0 xyz
      dof rx ry rz
   end
   begin
      id 26
      name LeftToeBase
      direction 0.000000 0.000000 1.000000
      length 2.952750
      axis 0.0 0.0 0.0 xyz
      dof rx ry rz
   end
   begin
      id 27
      name RightUpLeg
      direction 0.000000 -1.000000 0.000000
      length 15.713025
      axis 0.0 0.0 0.0 xyz
      dof rx ry rz
   end
   begin
      id 28
      name RightLeg
      direction 0.000000 -1.000000 0.000000
      length 14.435119
      axis 0.0 0.0 0.0 xyz
      dof rx ry rz
   end
   begin
      id 29
      name RightFoot
      direction 0.000000 -0.258819 0.965926
      length 4.938895
      axis 15.0 0.0 0.0 xyz
      dof rx ry rz
   end
   begin
      id 30
      name RightToeBase
      direction 0.000000 0.000000 1.000000
      length 2.952750
      axis 0.0 0.0 0.0 xyz
      dof rx ry rz
   end
:hierarchy
   begin
      root Spine_dum LeftUpLeg_dum RightUpLeg_dum
      Spine_dum Spine
      LeftUpLeg_dum LeftUpLeg
      RightUpLeg_dum RightUpLeg
      Spine Spine_dum1 Spine_dum2 Spine_dum3
      Spine_dum1 Head
      Spine_dum2 LeftShoulder
      Spine_dum3 RightShoulder
      LeftShoulder LeftArm
      LeftArm LeftForeArm
      LeftForeArm LeftHand
      LeftHand LeftHand_dum1 LeftHand_dum2
      LeftHand_dum1 LeftHandThumb1
      RightShoulder RightArm
      RightArm RightForeArm
      RightForeArm RightHand
      RightHand RightHand_dum1 RightHand_dum2
      RightHand_dum1 RightHandThumb1
      LeftUpLeg LeftLeg
      LeftLeg LeftFoot
      LeftFoot LeftToeBase
      RightUpLeg RightLeg
      RightLeg RightFoot
      RightFoot RightToeBase
   end

# File created by Blade
# Date/Time:  Thu Sep 25 17:54:10 2014
# Frame Rate: 120.000 fps
#------------------------------------------------------
:FULLY-SPECIFIED
:DEGREES
1438
root 0.322611 32.597884 -5.870858 24.396007 3.489812 -0.094131
Spine -29.172028 -5.507964 3.226549
Head 34.293734 1.796508 -2.672246
LeftShoulder -20.619755 33.488537 44.989080
LeftArm 200.594711 -32.587257 -142.088768
LeftForeArm -27.312216 -0.000000 117.370335
LeftHand -6.543427 -0.000000 -6.578829
LeftHandThumb1 -26.253704 0.000000 33.147579
RightShoulder -32.324171 -40.628524 -36.445970
RightArm 129.164740 46.867268 139.122915
RightForeArm 63.741889 -0.000000 114.796471
RightHand 12.357360 -0.000000 1.370999
RightHandThumb1 -24.326973 -0.000000 -32.862282
LeftUpLeg -18.115429 3.251966 0.183881
LeftLeg -1.111762 -0.000000 0.000000
LeftFoot -5.009032 -2.968448 -1.799992
LeftToeBase 3.571086 -0.000000 -0.000000
RightUpLeg -17.256949 -9.594329 4.090184
RightLeg -2.344944 -0.000000 0.000000
RightFoot -7.570742 -1.187796 12.353926
RightToeBase 15.799236 -0.000000 -0.000000
1439
root 0.318288 32.591579 -5.874263 24.528330 3.586571 -0.055260
Spine -29.333843 -5.419119 3.183990
Head 34.070328 1.352681 -2.607705
LeftShoulder -20.378669 32.901013 45.274331
LeftArm 199.028940 -33.912767 -143.206611
LeftForeArm -28.814981 -0.000000 117.048772
LeftHand -6.560241 0.000000 -5.510331
LeftHandThumb1 -26.253704 0.000000 33.147579
RightShoulder -30.043546 -35.905591 -38.871003
RightArm 126.885101 50.401667 135.612622
RightForeArm 62.862814 -0.000000 113.592083
RightHand 12.420579 0.000000 0.966119
RightHandThumb1 -24.326973 -0.000000 -32.862282
LeftUpLeg -18.282608 3.201583 0.169249
LeftLeg -1.072414 -0.000000 0.000000
LeftFoot -5.054960 -3.013500 -1.788311
LeftToeBase 3.577033 -0.000000 -0.000000
RightUpLeg -17.414535 -9.671426 4.120641
RightLeg -2.294424 -0.000000 0.000000
RightFoot -7.635182 -1.112962 12.390911
RightToeBase 15.909189 -0.000000 -0.000000
1440
root 0.310353 32.588113 -5.879155 24.634561 3.663679 -0.044122
Spine -29.455946 -5.324937 3.147120
Head 33.892773 0.739101 -2.733759
LeftShoulder -20.222594 32.292493 45.490304
LeftArm 197.377106 -35.337905 -144.226638
LeftForeArm -30.001350 0.000000 116.705046
LeftHand -6.452821 -0.000000 -4.304471
LeftHandThumb1 -26.253704 0.000000 33.147579
RightShoulder -28.652412 -32.884986 -40.255936
RightArm 125.594260 52.442917 133.451897
RightForeArm 62.147741 -0.000000 112.639643
RightHand 12.602388 -0.000000 0.584771
RightHandThumb1 -24.326973 -0.000000 -32.862282
LeftUpLeg -18.425112 3.182786 0.179777
LeftLeg -1.037257 -0.000000 0.000000
LeftFoot -5.091832 -3.062162 -1.775184
LeftToeBase 3.570448 -0.000000 -0.000000
RightUpLeg -17.539850 -9.680586 4.161491
RightLeg -2.255113 -0.000000 0.000000
RightFoot -7.756125 -1.189421 12.257381
RightToeBase 16.091737 -0.000000 -0.000000
1441
root 0.300728 32.586406 -5.883764 24.695282 3.729671 -0.027980
Spine -29.511874 -5.244379 3.087017
Head 33.779925 0.074209 -2.870388
LeftShoulder -20.143220 31.765138 45.612651
LeftArm 195.777417 -36.697220 -145.168786
LeftForeArm -31.239210 0.000000 116.294553
LeftHand -6.329456 -0.000000 -3.510515
LeftHandThumb1 -26.253704 0.000000 33.147579
RightShoulder -27.653974 -30.453034 -41.240951
RightArm 124.404631 53.866463 131.564351
RightForeArm 61.421209 -0.000000 111.769678
RightHand 12.767820 -0.000000 0.291336
RightHandThumb1 -24.326973 -0.000000 -32.862282
LeftUpLeg -18.519609 3.171513 0.186154
LeftLeg -1.004761 -0.000000 0.000000
LeftFoot -5.102358 -3.107975 -1.761750
LeftToeBase 3.586259 -0.000000 -0.000000
RightUpLeg -17.603315 -9.660647 4.174253
RightLeg -2.253814 -0.000000 0.000000
RightFoot -7.754532 -1.236762 12.369638
RightToeBase 15.956248 -0.000000 -0.000000
1442
root 0.290583 32.585616 -5.887178 24.705135 3.764156 -0.018153
Spine -29.527297 -5.177347 3.039022
Head 33.706273 -0.529968 -3.020881
LeftShoulder -20.091185 31.304628 45.666897
LeftArm 194.202147 -37.996889 -146.072456
LeftForeArm -32.155816 -0.000000 115.879667
LeftHand -6.325156 -0.000000 -3.013845
LeftHandThumb1 -26.253704 0.000000 33.147579
RightShoulder -26.700152 -28.455169 -42.052661
RightArm 123.576597 55.039488 130.186771
RightForeArm 60.685210 -0.000000 111.031613
RightHand 12.883500 -0.000000 -0.005450
RightHandThumb1 -24.326973 -0.000000 -32.862282
LeftUpLeg -18.557656 3.194646 0.187933
LeftLeg -0.973377 -0.000000 0.000000
LeftFoot -5.105621 -3.155596 -1.747465
LeftToeBase 3.559030 -0.000000 -0.000000
RightUpLeg -17.626614 -9.644587 4.184298
RightLeg -2.229003 -0.000000 0.000000
RightFoot -7.829908 -1.291177 12.276068
RightToeBase 16.080641 -0.000000 -0.000000
1443
root 0.279436 32.584572 -5.891662 24.704767 3.813425 -0.001694
Spine -29.520346 -5.115605 2.978729
Head 33.593887 -1.084977 -3.073324
LeftShoulder -20.142205 30.918765 45.656907
LeftArm 192.540207 -39.188653 -146.855068
LeftForeArm -32.777147 0.000000 115.493409
LeftHand -6.374867 0.000000 -2.549445
LeftHandThumb1 -26.253704 0.000000 33.147579
RightShoulder -26.092647 -27.145747 -42.551415
RightArm 123.119262 55.492274 129.345071
RightForeArm 59.853051 -0.000000 110.369206
RightHand 12.897100 -0.000000 -0.077583
RightHandThumb1 -24.326973 -0.000000 -32.862282
LeftUpLeg -18.589768 3.181022 0.198462
LeftLeg -0.939303 -0.000000 0.000000
LeftFoot -5.102400 -3.175530 -1.738240
LeftToeBase 3.525900 -0.000000 -0.000000
RightUpLeg -17.622626 -9.632103 4.185376
RightLeg -2.239389 -0.000000 0.000000
RightFoot -7.819714 -1.315311 12.377181
RightToeBase 15.959716 -0.000000 -0.000000
1444
root 0.267157 32.583478 -5.898381 24.738017 3.848783 0.013773
Spine -29.529819 -5.033581 2.923808
Head 33.443062 -1.620650 -3.140873
LeftShoulder -19.923043 30.037083 45.880497
LeftArm 190.798709 -40.844005 -147.628625
LeftForeArm -33.457619 -0.000000 115.019897
LeftHand -6.223205 -0.000000 -2.339012
LeftHandThumb1 -26.253704 0.000000 33.147579
RightShoulder -25.598516 -26.184840 -42.987315
RightArm 122.747601 55.784275 128.770447
RightForeArm 59.061271 0.000000 109.786552
RightHand 13.068085 -0.000000 -0.279589
RightHandThumb1 -24.326973 -0.000000 -32.862282
LeftUpLeg -18.660049 3.180511 0.204551
LeftLeg -0.902299 -0.000000 0.000000
LeftFoot -5.101472 -3.187273 -1.694383
LeftToeBase 3.472667 -0.000000 -0.000000
RightUpLeg -17.656123 -9.573168 4.181167
RightLeg -2.248565 -0.000000 0.000000
RightFoot -7.850217 -1.390802 12.410689
RightToeBase 15.972002 -0.000000 -0.000000
1445
root 0.254906 32.582595 -5.903993 24.771636 3.859757 0.011412
Spine -29.565439 -4.876834 2.850229
Head 33.354018 -2.113389 -3.142404
LeftShoulder -19.841920 29.327377 46.038493
LeftArm 188.777797 -42.231431 -148.140892
LeftForeArm -33.781075 -0.000000 114.708010
LeftHand -6.316413 -0.000000 -2.356814
LeftHandThumb1 -26.253704 0.000000 33.147579
RightShoulder -25.254331 -25.698359 -43.352391
RightArm 122.508545 55.749826 128.558484
RightForeArm 58.273855 0.000000 109.282084
RightHand 13.163472 -0.000000 -0.373240
RightHandThumb1 -24.326973 -0.000000 -32.862282
LeftUpLeg -18.718466 3.189871 0.227852
LeftLeg -0.878465 -0.000000 0.000000
LeftFoot -5.129445 -3.228399 -1.756881
LeftToeBase 3.554479 -0.000000 -0.000000
RightUpLeg -17.719823 -9.581343 4.220123
RightLeg -2.207202 -0.000000 0.000000
RightFoot -7.910128 -1.398082 12.285943
RightToeBase 16.088725 -0.000000 -0.000000
1446
root 0.242096 32.582760 -5.910445 24.775444 3.871196 0.010544
Spine -29.571684 -4.751270 2.785164
Head 33.277203 -2.475400 -3.015522
LeftShoulder -19.752276 28.640678 46.140768
LeftArm 186.895560 -43.619385 -148.669938
LeftForeArm -34.192427 -0.000000 114.350878
LeftHand -6.409172 -0.000000 -2.151589
LeftHandThumb1 -26.253704 0.000000 33.147579
RightShoulder -24.855294 -25.025446 -43.619460
RightArm 122.167232 55.909023 128.010557
RightForeArm 57.551083 0.000000 108.672286
RightHand 13.281533 -0.000000 -0.621504
RightHandThumb1 -24.326973 -0.000000 -32.862282
LeftUpLeg -18.744397 3.197672 0.248406
LeftLeg -0.865515 -0.000000 0.000000
LeftFoot -5.123430 -3.233112 -1.779509
LeftToeBase 3.553726 -0.000000 -0.000000
RightUpLeg -17.743165 -9.584126 4.246930
RightLeg -2.194675 -0.000000 0.000000
RightFoot -7.901850 -1.376767 12.240467
RightToeBase 16.042731 -0.000000 -0.000000
1447
root 0.228542 32.581715 -5.917488 24.807209 3.869206 0.010615
Spine -29.597601 -4.598236 2.687198
Head 33.201975 -3.021548 -3.004976
LeftShoulder -19.580778 27.921837 46.340323
LeftArm 185.094334 -45.092069 -149.267586
LeftForeArm -34.345537 -0.000000 114.107475
LeftHand -6.829004 -0.000000 -1.431576
LeftHandThumb1 -26.253704 0.000000 33.147579
RightShoulder -24.510018 -24.532638 -43.844660
RightArm 121.824078 55.982997 127.616374
RightForeArm 56.788756 -0.000000 108.074912
RightHand 13.423017 -0.000000 -0.933241
RightHandThumb1 -24.326973 -0.000000 -32.862282
LeftUpLeg -18.799647 3.225845 0.258299
LeftLeg -0.847719 -0.000000 0.000000
LeftFoot -5.129890 -3.241486 -1.757948
LeftToeBase 3.510371 -0.000000 -0.000000
RightUpLeg -17.798700 -9.596849 4.283669
RightLeg -2.176978 -0.000000 0.000000
RightFoot -7.907885 -1.361766 12.199727
RightToeBase 16.054788 -0.000000 -0.000000
1448
root 0.213869 32.580814 -5.925465 24.863845 3.846165 0.006147
Spine -29.621692 -4.444441 2.584580
Head 33.100206 -3.547654 -3.026425
LeftShoulder -19.436883 26.826286 46.674451
LeftArm 182.826107 -46.824919 -149.539229
LeftForeArm -34.779761 -0.000000 113.897493
LeftHand -7.051905 -0.000000 -0.869612
LeftHandThumb1 -26.253704 0.000000 33.147579
RightShoulder -24.136004 -23.570774 -44.282096
RightArm 120.583021 56.378229 126.529812
RightForeArm 56.064044 -0.000000 107.451523
RightHand 13.508153 -0.000000 -1.110582
RightHandThumb1 -24.326973 -0.000000 -32.862282
LeftUpLeg -18.880304 3.254153 0.271983
LeftLeg -0.827909 -0.000000 0.000000
LeftFoot -5.137171 -3.223733 -1.755344
LeftToeBase 3.511304 -0.000000 -0.000000
RightUpLeg -17.880474 -9.574724 4.317841
RightLeg -2.165856 -0.000000 0.000000
RightFoot -7.890031 -1.313728 12.328949
RightToeBase 15.966482 -0.000000 -0.000000
